:SAMPLES-PER-SECOND 30
:FULLY-SPECIFIED
:DEGREES
1
root  78.1191 40.4484 -4.61435 -44.9196 -89.7362 44.2328
RightUpLeg  -0.224387 -8.72106 -6.68477
RightLeg  2.60844 -5.30806 3.6123
RightFoot  -0.528749 0.0193133 -0.254837
RightToes  1.16414e-010 0 -3.6325e-017
Spine  4.62933 -0.244436 -0.410922
Spine1  -2.56732 -0.222656 -0.185191
HEad  -3.36399 0.286423 0.0240114
LeftShoulder1  1.00937 -1.54911 -12.7074
LeftArm  -15.1944 4.7163 1.71648
LeftForeArm  9.67307 0.0527442 -2.99511
LeftHand  -0.244104 0.0205437 5.32207
RightShoulder  0.420218 -0.611624 6.91349
RightArm  -17.2938 1.49836 1.1561
RightForeArm  7.3148 0.594493 3.74085
RightHand  -1.16668 4.11726 -14.4459
LeftUpLeg  -0.253735 6.08462 5.31598
LeftLeg  2.21647 6.5077 -3.74337
LeftFoot  -1.38754 0.174071 -1.98501
LeftToes  -6.73059e-011 1.31891e-010 -1.28765e-011
2
root  78.1335 40.4465 -4.6067 -47.3943 -89.724 46.7053
RightUpLeg  -0.272394 -8.75514 -6.72034
RightLeg  2.66893 -5.2729 3.62056
RightFoot  -0.540424 0.0197216 -0.261177
RightToes  1.16414e-010 0 -3.6325e-017
Spine  4.49366 -0.259128 -0.42179
Spine1  -2.32094 -0.237156 -0.182752
HEad  -3.58818 0.192049 0.0505321
LeftShoulder1  1.00937 -1.5337 -12.6853
LeftArm  -15.2524 4.7028 1.66654
LeftForeArm  9.65529 0.0752676 -2.97106
LeftHand  -0.244104 0.0205437 5.32207
RightShoulder  0.424907 -0.577243 6.90202
RightArm  -17.325 1.48767 1.14974
RightForeArm  7.09509 0.605538 3.74818
RightHand  -1.13062 3.90231 -14.3215
LeftUpLeg  -0.266867 6.07598 5.28635
LeftLeg  2.19775 6.51682 -3.75726
LeftFoot  -1.37762 0.172164 -1.95535
LeftToes  -6.73059e-011 1.31891e-010 -1.28765e-011
3
root  78.1608 40.4438 -4.59716 -51.1346 -89.7297 50.4169
RightUpLeg  -0.33481 -8.77943 -6.74502
RightLeg  2.76333 -5.23278 3.62045
RightFoot  -0.542517 0.0202821 -0.269882
RightToes  1.16414e-010 0 -3.6325e-017
Spine  4.34562 -0.26375 -0.39899
Spine1  -1.96593 -0.234406 -0.206919
HEad  -3.97704 0.110316 0.10155
LeftShoulder1  1.00937 -1.52764 -12.6552
LeftArm  -15.4223 4.64594 1.58537
LeftForeArm  9.67854 0.16181 -2.89648
LeftHand  -0.244104 0.0205437 5.32207
RightShoulder  0.430362 -0.535514 6.87951
RightArm  -17.3759 1.46002 1.13103
RightForeArm  6.86524 0.575123 3.74325
RightHand  -1.10749 3.75997 -14.2453
LeftUpLeg  -0.285314 6.08446 5.27059
LeftLeg  2.21526 6.53551 -3.77641
LeftFoot  -1.36842 0.169744 -1.91772
LeftToes  -6.73059e-011 1.31891e-010 -1.28765e-011
4
root  78.1891 40.4416 -4.58857 -50.4794 -89.7225 49.715
RightUpLeg  -0.362385 -8.79101 -6.76522
RightLeg  2.82861 -5.22651 3.62186
RightFoot  -0.528895 0.019412 -0.25637
RightToes  1.16414e-010 0 -3.6325e-017
Spine  4.37383 -0.246646 -0.320384
Spine1  -1.83443 -0.229851 -0.282711
HEad  -4.37505 0.133485 0.106521
LeftShoulder1  1.00937 -1.56311 -12.6355
LeftArm  -15.5687 4.60948 1.52716
LeftForeArm  9.69098 0.191575 -2.83578
LeftHand  -0.244104 0.0205437 5.32207
RightShoulder  0.434825 -0.502101 6.86544
RightArm  -17.3393 1.36593 1.08129
RightForeArm  6.65921 0.562616 3.75491
RightHand  -1.11749 3.77666 -14.3453
LeftUpLeg  -0.326833 6.0616 5.24166
LeftLeg  2.30527 6.57009 -3.74517
LeftFoot  -1.36988 0.169898 -1.92011
LeftToes  -6.73059e-011 1.31891e-010 -1.28765e-011
5
root  78.2118 40.4397 -4.5793 -43.3152 -89.6738 42.5275
RightUpLeg  -0.369765 -8.81087 -6.79855
RightLeg  2.84375 -5.26011 3.62623
RightFoot  -0.511852 0.017801 -0.231352
RightToes  1.16414e-010 0 -3.6325e-017
Spine  4.49881 -0.231813 -0.216062
Spine1  -1.90251 -0.260192 -0.391481
HEad  -4.5848 0.210918 0.0535604
LeftShoulder1  1.00942 -1.60939 -12.5884
LeftArm  -15.5526 4.62687 1.47448
LeftForeArm  9.62542 0.107094 -2.85418
LeftHand  -0.244104 0.0205437 5.32207
RightShoulder  0.440494 -0.467713 6.89108
RightArm  -17.2675 1.25067 1.01182
RightForeArm  6.36911 0.60705 3.78522
RightHand  -1.12016 3.70873 -14.4812
LeftUpLeg  -0.398319 5.97151 5.16895
LeftLeg  2.3947 6.61474 -3.65295
LeftFoot  -1.37949 0.172866 -1.96627
LeftToes  -6.73059e-011 1.31891e-010 -1.28765e-011
6
root  78.229 40.4377 -4.57136 -35.8213 -89.6141 35.0493
RightUpLeg  -0.395352 -8.8275 -6.81759
RightLeg  2.83514 -5.31403 3.63044
RightFoot  -0.498536 0.0179916 -0.234311
RightToes  1.16414e-010 0 -3.6325e-017
Spine  4.53177 -0.310641 -0.204239
Spine1  -1.9089 -0.236292 -0.409244
HEad  -4.66054 0.252817 0.0103713
LeftShoulder1  1.00878 -1.62159 -12.5111
LeftArm  -15.4348 4.63733 1.41711
LeftForeArm  9.50251 0.0450858 -2.91716
LeftHand  -0.244104 0.0205437 5.32207
RightShoulder  0.443705 -0.456512 6.94967
RightArm  -17.355 1.24978 0.985031
RightForeArm  6.33103 0.621374 3.76317
RightHand  -1.10748 3.62957 -14.4417
LeftUpLeg  -0.459313 5.87319 5.09902
LeftLeg  2.38501 6.64619 -3.57005
LeftFoot  -1.38196 0.175042 -2.00011
LeftToes  -6.73059e-011 1.31891e-010 -1.28765e-011
7
root  78.2441 40.436 -4.56741 -32.0502 -89.5925 31.3029
RightUpLeg  -0.446575 -8.82449 -6.80428
RightLeg  2.8459 -5.35649 3.62691
RightFoot  -0.487637 0.0201965 -0.268553
RightToes  1.16414e-010 0 -3.6325e-017
Spine  4.45126 -0.333796 -0.081665
Spine1  -1.75488 -0.254011 -0.50572
HEad  -4.82213 0.251779 0.0197733
LeftShoulder1  1.01021 -1.63201 -12.4984
LeftArm  -15.3735 4.59254 1.42716
LeftForeArm  9.37256 0.118434 -2.94572
LeftHand  -0.244104 0.0205437 5.32207
RightShoulder  0.44298 -0.472334 7.00793
RightArm  -17.5756 1.36514 0.995144
RightForeArm  6.89914 0.542595 3.669
RightHand  -1.12393 3.90097 -14.2428
LeftUpLeg  -0.475027 5.84301 5.08381
LeftLeg  2.29195 6.65322 -3.56047
LeftFoot  -1.36887 0.173403 -1.97462
LeftToes  -6.73059e-011 1.31891e-010 -1.28765e-011
8
root  78.259 40.4345 -4.5648 -31.9403 -89.6012 31.1981
RightUpLeg  -0.500458 -8.82047 -6.79296
RightLeg  2.88945 -5.36563 3.61677
RightFoot  -0.482083 0.0214409 -0.287877
RightToes  1.16414e-010 0 -3.6325e-017
Spine  4.38922 -0.325892 -0.0133026
Spine1  -1.58003 -0.240716 -0.519991
HEad  -5.13544 0.206986 0.0128159
LeftShoulder1  1.0282 -1.69662 -12.6117
LeftArm  -15.3612 4.54307 1.55018
LeftForeArm  9.24418 0.220092 -2.947
LeftHand  -0.244104 0.0205437 5.32207
RightShoulder  0.449704 -0.436751 7.06365
RightArm  -17.6369 1.42176 0.928555
RightForeArm  7.65717 0.461695 3.60566
RightHand  -1.18217 4.48396 -14.1124
LeftUpLeg  -0.477241 5.86058 5.09378
LeftLeg  2.23768 6.65311 -3.59053
LeftFoot  -1.36049 0.170612 -1.93123
LeftToes  -6.73059e-011 1.31891e-010 -1.28765e-011
9
root  78.273 40.4322 -4.55945 -32.8861 -89.5949 32.1333
RightUpLeg  -0.533279 -8.83786 -6.81395
RightLeg  2.93651 -5.3498 3.61725
RightFoot  -0.490513 0.0199998 -0.265498
RightToes  1.16414e-010 0 -3.6325e-017
Spine  4.42685 -0.320485 0.0519054
Spine1  -1.50338 -0.234726 -0.517811
HEad  -5.37382 0.126224 -0.0867149
LeftShoulder1  1.04839 -1.76068 -12.7709
LeftArm  -15.2638 4.54062 1.6975
LeftForeArm  9.12063 0.203027 -2.9922
LeftHand  -0.244104 0.0205437 5.32207
RightShoulder  0.471744 -0.297493 7.12144
RightArm  -17.431 1.32897 0.744378
RightForeArm  7.8974 0.491731 3.65004
RightHand  -1.23504 4.89882 -14.1574
LeftUpLeg  -0.518063 5.84562 5.07028
LeftLeg  2.2976 6.66939 -3.5758
LeftFoot  -1.38636 0.17177 -1.94922
LeftToes  -6.73059e-011 1.31891e-010 -1.28765e-011
